
<svg width="1600" height="620" viewBox="0 0 1600 620" fill="none" xmlns="http://www.w3.org/2000/svg">
  <defs>
    <linearGradient id="bg" x1="0" y1="0" x2="1600" y2="620">
      <stop stop-color="#050816"/>
      <stop offset="0.45" stop-color="#0B1220"/>
      <stop offset="1" stop-color="#120A2E"/>
    </linearGradient>

    <linearGradient id="neon" x1="0" y1="0" x2="1600" y2="620">
      <stop stop-color="#00E5FF"/>
      <stop offset="0.5" stop-color="#6D5DF6"/>
      <stop offset="1" stop-color="#A855F7"/>
    </linearGradient>

    <filter id="glow">
      <feGaussianBlur stdDeviation="6" result="blur"/>
      <feMerge>
        <feMergeNode in="blur"/>
        <feMergeNode in="SourceGraphic"/>
      </feMerge>
    </filter>

    <style>
      .title { font: 900 82px Arial, sans-serif; fill: #F8FAFC; }
      .sub { font: 600 28px Arial, sans-serif; fill: #00E5FF; }
      .text { font: 500 20px Arial, sans-serif; fill: #CBD5E1; }
      .small { font: 600 16px monospace; fill: #94A3B8; }
      .label { font: 700 18px monospace; fill: #F8FAFC; }
    </style>
  </defs>

  <rect width="1600" height="620" rx="34" fill="url(#bg)"/>

  <circle cx="1280" cy="300" r="210" stroke="#00E5FF" stroke-opacity="0.35" stroke-width="2"/>
  <circle cx="1280" cy="300" r="150" stroke="#6D5DF6" stroke-opacity="0.55" stroke-width="2"/>
  <circle cx="1280" cy="300" r="90" stroke="#A855F7" stroke-opacity="0.75" stroke-width="2"/>
  <circle cx="1280" cy="300" r="42" fill="url(#neon)" filter="url(#glow)"/>

  <rect x="70" y="70" width="1460" height="480" rx="30" fill="white" fill-opacity="0.045" stroke="url(#neon)" stroke-width="2"/>

  <text x="120" y="165" class="small">ACCESS GRANTED • EZZ OS</text>
  <text x="120" y="270" class="title">Ezz Aldin</text>
  <text x="125" y="320" class="sub">Software Engineering Student</text>
  <text x="125" y="365" class="text">Flutter Developer • Laravel Backend Developer • Cybersecurity Learner • AI Explorer</text>

  <rect x="125" y="410" width="170" height="48" rx="14" fill="#061826" stroke="#22C55E"/>
  <circle cx="153" cy="434" r="8" fill="#22C55E"/>
  <text x="175" y="441" class="label">ONLINE</text>

  <rect x="315" y="410" width="310" height="48" rx="14" fill="#111827" stroke="#6D5DF6"/>
  <text x="340" y="441" class="label">BUILDING REAL PROJECTS</text>

  <rect x="645" y="410" width="280" height="48" rx="14" fill="#071A24" stroke="#00E5FF"/>
  <text x="670" y="441" class="label">CODE • BUILD • SECURE</text>

  <text x="125" y="510" class="small">COMMUNICATION GATEWAY</text>
  <text x="125" y="540" class="text">ezzman1234567890@gmail.com</text>

  <rect x="1030" y="430" width="160" height="70" rx="18" fill="#07111F" stroke="#00E5FF" stroke-opacity="0.55"/>
  <text x="1060" y="460" class="small">FLUTTER</text>
  <rect x="1060" y="475" width="100" height="8" rx="4" fill="#1E293B"/>
  <rect x="1060" y="475" width="85" height="8" rx="4" fill="#00E5FF"/>

  <rect x="1210" y="430" width="160" height="70" rx="18" fill="#07111F" stroke="#6D5DF6" stroke-opacity="0.55"/>
  <text x="1240" y="460" class="small">LARAVEL</text>
  <rect x="1240" y="475" width="100" height="8" rx="4" fill="#1E293B"/>
  <rect x="1240" y="475" width="78" height="8" rx="4" fill="#6D5DF6"/>

  <rect x="1030" y="515" width="340" height="18" rx="9" fill="url(#neon)" opacity="0.9"/>
</svg>
